<?xml version="1.0" encoding="utf-8"?>
<!-- Generator: Adobe Illustrator 16.0.0, SVG Export Plug-In . SVG Version: 6.00 Build 0)  -->
<!DOCTYPE svg PUBLIC "-//W3C//DTD SVG 1.1//EN" "http://www.w3.org/Graphics/SVG/1.1/DTD/svg11.dtd">
<svg version="1.1" id="Layer_1" xmlns="http://www.w3.org/2000/svg" xmlns:xlink="http://www.w3.org/1999/xlink" x="0px" y="0px"
	 width="308px" height="335px" viewBox="0 0 308 335" enable-background="new 0 0 308 335" xml:space="preserve">
<polyline fill="#B9E1D4" stroke="#000000" points="283.281,126.941 284.719,128.379 284.719,131.517 282.316,130.549 
	283.281,126.941 "/>
<polyline fill="#B9E1D4" stroke="#000000" points="282.08,142.334 280.627,140.883 283.032,139.681 283.516,142.334 282.08,142.334 
	"/>
<polygon fill="#B8E0D3" stroke="#000000" points="278.225,168.041 277.273,168.775 276.538,175.254 274.387,176.939 
	275.104,180.547 271.98,182.717 272.695,187.523 271.729,195.689 266.455,204.584 268.609,205.787 270.779,205.787 273.666,203.383 
	279.909,170.445 279.678,168.775 "/>
<polyline fill="#B9E1D4" stroke="#000000" points="159.484,177.658 160.199,177.658 160.918,181.75 159.715,183.438 
	157.795,183.666 156.825,181.029 157.076,178.627 159.484,177.658 "/>
<polyline fill="#B9E1D4" stroke="#000000" points="44.094,184.152 46.497,184.871 46.732,187.271 49.855,191.85 49.386,192.814 
	44.812,192.564 43.377,191.361 44.094,184.152 "/>
<polygon fill="#B9E1D4" stroke="#000000" points="77.984,216.855 74.378,221.414 68.616,223.102 65.731,226.473 61.407,229.107 
	52.992,235.834 51.542,240.412 52.258,242.564 55.147,243.047 59.236,239.691 64.045,237.756 65.01,236.32 64.045,232.479 
	68.133,231.277 69.803,229.346 74.378,227.188 76.298,227.188 83.024,221.414 82.072,219.008 "/>
<polygon fill="#B9E1D4" stroke="#000000" points="44.812,239.691 40.723,240.412 41.205,243.047 42.891,244.502 47.7,244.732 
	49.386,243.533 48.903,240.646 "/>
<polygon fill="#B4EDD9" stroke="#000000" points="4.312,217.332 4.912,214.453 4.43,213.008 3.948,211.562 3.346,211.207 
	2.744,210.85 2.985,209.275 3.226,207.707 4.546,208.674 5.865,209.646 6.466,209.041 7.068,208.439 7.552,208.916 8.036,209.395 
	8.395,210.836 8.753,212.281 9.839,213.367 10.925,214.453 11.401,216.613 11.877,218.775 12.36,218.049 12.842,217.322 
	12.601,215.402 12.36,213.482 13.32,211.562 14.28,209.646 16.567,209.4 18.854,209.16 17.41,205.555 15.966,201.947 
	16.208,201.223 16.448,200.496 14.404,197.016 12.36,193.535 10.799,193.049 9.239,192.564 9.113,191.248 8.988,189.93 
	10.072,188.602 11.156,187.271 12.959,190.043 14.762,192.814 15.605,193.65 16.448,194.484 16.808,194.252 17.169,194.021 
	17.886,191.373 18.604,188.727 18.37,186.562 18.136,184.4 18.737,183.076 19.337,181.75 20.172,182.107 21.006,182.465 
	22.333,185.955 23.66,189.443 24.979,189.328 26.298,189.209 26.056,186.684 25.815,184.152 24.012,181.631 22.21,179.111 
	21.008,175.379 19.806,171.646 20.173,168.285 20.541,164.92 21.742,163.119 22.943,161.314 23.176,164.562 23.409,167.81 
	25.096,172.732 26.784,177.658 29.546,177.424 32.307,177.191 33.151,178.15 33.996,179.111 33.996,180.67 33.996,182.23 
	35.798,187.398 37.599,192.564 38.318,193.408 39.037,194.25 39.637,191.129 40.237,188.008 39.637,184.162 39.037,180.312 
	37.359,179.471 35.681,178.627 35.556,177.543 35.431,176.459 36.399,175.855 37.367,175.254 41.089,176.582 44.812,177.91 
	45.897,177.186 46.983,176.459 47.216,175.98 47.449,175.504 48.292,175.264 49.134,175.021 50.094,176.338 51.055,177.658 
	52.023,177.424 52.992,177.191 53.468,175.863 53.944,174.537 52.866,173.092 51.788,171.646 50.587,171.414 49.386,171.182 
	47.7,169.854 46.014,168.527 47.333,167.209 48.652,165.892 50.338,166.131 52.023,166.375 53.109,167.209 54.195,168.041 
	56.597,168.041 59,168.041 59.961,169.729 60.921,171.416 62.124,171.416 63.324,171.416 63.324,170.455 63.324,169.494 
	64.043,168.535 64.762,167.576 64.287,163.244 63.812,158.912 64.528,158.67 65.245,158.429 66.446,159.396 67.648,160.363 
	68.132,159.996 68.616,159.627 67.416,157.107 66.213,154.586 65.012,150.498 63.812,146.41 64.169,145.933 64.527,145.457 
	66.931,147.375 69.336,149.295 70.412,150.74 71.488,152.185 70.528,152.066 69.568,151.951 70.17,153.152 70.771,154.354 
	73.417,156.273 76.063,158.191 76.18,155.789 76.298,153.386 75.094,152.301 73.891,151.215 73.649,149.896 73.408,148.578 
	74.377,148.693 75.345,148.812 76.18,148.336 77.015,147.859 76.897,147.377 76.78,146.894 73.658,142.929 70.536,138.963 
	70.771,138.604 71.006,138.246 72.933,139.564 74.86,140.883 75.103,140.523 75.345,140.166 74.377,138.604 73.408,137.043 
	76.054,135.355 78.701,133.672 79.061,133.912 79.419,134.152 79.061,136.439 78.701,138.729 80.862,139.806 83.024,140.883 
	85.194,140.523 87.363,140.166 88.682,141.853 90.002,143.539 90.963,143.896 91.923,144.254 92.048,144.73 92.173,145.207 
	89.402,148.937 86.631,152.666 87.356,153.025 88.082,153.386 91.203,149.295 94.325,145.207 93.607,141.482 92.89,137.761 
	93.733,137.275 94.576,136.791 95.41,137.035 96.245,137.275 99.134,136.199 102.023,135.121 102.264,135.724 102.506,136.324 
	99.86,139.806 97.214,143.287 98.416,143.771 99.616,144.254 100.576,143.412 101.537,142.568 101.896,146.058 102.255,149.547 
	98.775,150.75 95.294,151.951 93.734,153.627 92.173,155.306 92.29,156.506 92.405,157.709 93.849,157.467 95.294,157.226 
	96.371,155.906 97.448,154.586 98.292,154.229 99.134,153.871 99.978,154.347 100.82,154.82 101.78,157.107 102.74,159.396 
	101.178,160.479 99.616,161.564 97.697,161.322 95.779,161.082 94.452,161.799 93.125,162.519 94.452,163.72 95.779,164.92 
	96.737,164.679 97.696,164.438 99.141,165.164 100.586,165.892 100.344,166.492 100.104,167.09 97.34,168.41 94.576,169.729 
	94.45,170.812 94.325,171.898 95.411,174.42 96.497,176.939 95.411,180.188 94.325,183.438 94.926,184.396 95.528,185.354 
	95.17,188 94.812,190.646 95.654,193.291 96.497,195.938 95.052,197.381 93.608,198.826 92.522,203.508 91.437,208.191 
	87.597,210.955 83.758,213.717 84.476,215.162 85.195,216.604 85.796,215.646 86.396,214.686 87.239,214.568 88.082,214.453 
	90.243,216.129 92.405,217.811 96.01,213.729 99.616,209.646 102.137,208.316 104.658,206.988 105.861,207.475 107.064,207.959 
	109.234,207.602 111.403,207.242 111.521,204.234 111.638,201.23 112.355,200.146 113.073,199.062 113.557,199.904 114.042,200.748 
	114.159,203.51 114.276,206.271 118.608,205.43 122.94,204.584 124.5,204.828 126.059,205.068 126.66,200.264 127.262,195.455 
	127.747,194.854 128.231,194.25 128.833,194.609 129.434,194.971 130.034,197.977 130.634,200.98 130.751,201.707 130.868,202.434 
	129.908,203.393 128.948,204.354 129.191,204.828 129.434,205.307 132.439,205.07 135.444,204.836 137.846,203.508 140.25,202.184 
	142.411,200.139 144.572,198.092 145.65,196.289 146.729,194.484 146.01,192.924 145.293,191.361 146.736,191.004 148.18,190.646 
	150.701,186.438 153.223,182.23 153.223,180.67 153.223,179.111 156.827,175.623 160.432,172.131 161.275,172.131 162.12,172.131 
	162.604,172.859 163.086,173.586 163.805,176.824 164.523,180.062 163.805,181.631 163.086,183.203 166.451,182 169.816,180.795 
	171.734,177.549 173.652,174.305 175.457,173.818 177.26,173.334 178.947,173.578 180.635,173.818 182.438,175.264 184.238,176.707 
	185.557,176.465 186.875,176.225 188.562,174.904 190.248,173.586 192.051,173.346 193.855,173.102 194.932,173.578 
	196.008,174.055 195.773,172.734 195.541,171.416 196.377,170.33 197.211,169.246 198.779,169.369 200.348,169.494 202.268,170.57 
	204.188,171.646 204.307,172.732 204.424,173.818 202.504,174.537 200.582,175.254 200.342,175.738 200.1,176.225 198.896,175.979 
	197.693,175.736 197.453,177.184 197.211,178.627 197.811,180.432 198.41,182.23 199.855,181.391 201.301,180.547 201.424,179.229 
	201.549,177.91 204.068,176.105 206.59,174.305 211.039,172.258 215.488,170.211 216.205,169.127 216.922,168.041 221.613,167.441 
	226.307,166.84 228.953,167.209 231.6,167.576 239.045,165.045 246.49,162.519 249.62,162.519 252.75,162.519 260.32,160.713 
	267.893,158.912 271.256,161.314 274.618,163.722 274.977,162.875 275.336,162.033 274.736,161.314 274.137,160.599 
	274.979,160.838 275.82,161.082 278.107,160.121 280.396,159.162 280.637,159.638 280.877,160.113 279.91,161.916 278.941,163.722 
	279.785,164.205 280.627,164.688 282.555,160.354 284.484,156.021 283.883,153.859 283.281,151.701 283.156,149.179 
	283.032,146.658 282.189,146.058 281.348,145.457 279.311,146.299 277.273,147.144 276.305,146.541 275.336,145.939 
	275.818,144.013 276.303,142.084 274.016,143.168 271.729,144.254 271.371,142.693 271.012,141.131 271.854,138.486 272.695,135.84 
	275.461,134.998 278.225,134.152 277.982,131.75 277.742,129.349 278.826,128.629 279.909,127.912 278.592,125.381 277.273,122.853 
	277.631,122.609 277.989,122.367 279.551,123.57 281.111,124.773 282.674,123.336 284.232,121.9 285.561,125.865 286.887,129.83 
	287.605,137.758 288.325,145.688 287.723,151.699 287.121,157.709 285.076,161.916 283.032,166.123 283.518,166.965 284.002,167.81 
	285.32,165.765 286.639,163.722 288.198,159.396 289.758,155.072 289.883,148.705 290.01,142.334 288.809,127.068 287.607,111.804 
	286.164,111.679 284.719,111.552 284,112.638 283.281,113.722 282.799,113.722 282.316,113.722 281.715,111.918 281.111,110.115 
	277.625,113.361 274.137,116.607 274.02,115.648 273.9,114.689 274.861,112.521 275.82,110.349 277.75,108.07 279.678,105.792 
	279.076,103.263 278.475,100.732 279.076,99.773 279.678,98.812 280.637,98.337 281.596,97.861 282.555,98.462 283.516,99.062 
	284.602,103.988 285.688,108.915 286.164,108.915 286.639,108.915 286.881,108.07 287.121,107.229 286.521,103.379 285.92,99.531 
	282.432,86.554 278.941,73.572 275.221,64.2 271.498,54.826 267.408,46.896 263.316,38.965 259.838,33.557 256.355,28.147 
	252.867,24.542 249.379,20.938 244.328,17.933 239.277,14.927 231.23,12.398 223.184,9.87 216.088,10.112 208.993,10.354 
	206.592,11.557 204.188,12.758 203.346,14.919 202.502,17.082 202.986,17.323 203.471,17.564 204.672,16.963 205.873,16.362 
	205.873,17.564 205.873,18.768 210.555,25.261 215.238,31.754 217.768,31.513 220.297,31.271 221.857,30.069 223.418,28.867 
	223.535,27.907 223.652,26.947 222.936,27.063 222.219,27.181 220.898,28.141 219.58,29.1 217.893,29.343 216.205,29.586 
	215.363,28.5 214.521,27.415 217.283,23.809 220.047,20.202 222.217,19.243 224.387,18.282 227.75,19.008 231.111,19.735 
	234.234,21.539 237.357,23.341 240.604,26.706 243.852,30.068 245.172,33.548 246.49,37.029 246.973,40.519 247.457,44.007 
	248.059,61.92 248.661,79.833 249.146,81.511 249.631,83.188 250.23,83.672 250.829,84.156 251.549,84.156 252.268,84.156 
	251.549,80.667 250.829,77.181 251.43,76.579 252.032,75.978 251.789,72.253 251.547,68.531 252.865,67.205 254.186,65.876 
	255.145,65.275 256.105,64.675 257.307,65.042 258.508,65.41 260.795,68.892 263.082,72.371 264.885,72.253 266.689,72.138 
	267.408,71.537 268.127,70.937 268.969,71.537 269.812,72.138 268.854,72.738 267.893,73.338 268.01,74.784 268.127,76.228 
	267.291,76.46 266.455,76.693 265.973,76.095 265.488,75.495 264.045,76.095 262.6,76.693 263.199,77.538 263.799,78.38 
	265.361,78.505 266.924,78.63 267.766,79.349 268.609,80.066 267.533,81.627 266.455,83.188 267.416,89.798 268.375,96.41 
	268.375,103.146 268.375,109.882 265.729,113.246 263.082,116.607 259.594,118.529 256.105,120.449 246.73,123.58 237.357,126.709 
	236.758,127.427 236.156,128.146 234.953,127.66 233.75,127.176 232.549,127.302 231.348,127.429 230.146,128.871 228.945,130.314 
	227.744,129.349 226.543,128.379 223.535,129.582 220.527,130.783 219.453,130.549 218.379,130.314 214.404,132.119 
	210.432,133.922 208.396,135.238 206.359,136.558 205.633,137.644 204.904,138.729 205.264,139.205 205.623,139.681 
	204.062,140.521 202.502,141.365 201.301,142.685 200.1,144.002 199.855,144.972 199.613,145.939 198.412,145.213 197.211,144.486 
	195.049,145.088 192.887,145.688 184.715,145.088 176.543,144.486 175.699,143.888 174.855,143.287 174.381,142.209 
	173.904,141.131 174.506,140.89 175.107,140.646 177.145,140.767 179.18,140.883 181.35,140.283 183.521,139.681 185.324,140.642 
	187.127,141.601 188.562,141.601 189.998,141.601 190.967,141.125 191.936,140.646 193.496,140.767 195.057,140.883 
	194.814,140.283 194.572,139.681 192.285,138.361 189.998,137.043 178.463,136.316 166.928,135.592 160.561,133.789 
	154.192,131.984 147.58,129.222 140.967,126.459 134.232,120.574 127.497,114.689 125.46,112.402 123.422,110.115 122.938,108.195 
	122.453,106.275 122.57,104.474 122.688,102.669 124.975,97.495 127.262,92.318 126.545,90.642 125.828,88.964 125.943,84.631 
	126.059,80.299 124.616,78.379 123.174,76.46 122.33,74.416 121.485,72.371 121.485,71.412 121.485,70.452 122.571,69.966 
	123.657,69.482 123.774,67.921 123.891,66.361 121.854,65.759 119.816,65.159 117.889,63.48 115.962,61.803 113.44,60.476 
	110.918,59.148 108.991,59.392 107.064,59.634 105.745,60.594 104.426,61.554 102.74,61.312 101.055,61.069 97.214,54.225 
	93.374,47.38 93.006,47.98 92.639,48.582 94.084,51.461 95.528,54.341 94.926,55.901 94.325,57.462 93.607,57.346 92.89,57.229 
	90.962,55.31 89.033,53.391 87.715,51.104 86.396,48.816 83.75,46.771 81.104,44.726 80.862,43.523 80.621,42.321 79.059,40.877 
	77.499,39.435 77.382,38.476 77.266,37.516 80.028,35.954 82.79,34.392 84.351,36.312 85.913,38.232 87.356,37.397 88.799,36.563 
	88.799,35.236 88.799,33.91 87.597,33.191 86.396,32.473 88.199,28.382 90.002,24.292 91.204,24.05 92.405,23.809 92.29,23.208 
	92.173,22.606 90.003,21.646 87.833,20.688 87.598,20.211 87.363,19.735 87.84,18.768 88.316,17.799 90.002,17.323 91.688,16.847 
	96.495,25.135 101.302,33.423 101.545,34.869 101.788,36.312 99.501,38.115 97.214,39.918 97.214,41.246 97.214,42.572 
	98.532,42.207 99.851,41.839 100.218,40.878 100.586,39.918 102.506,38.841 104.426,37.765 105.386,38.482 106.347,39.201 
	106.947,39.083 107.547,38.965 107.672,38.481 107.797,37.999 104.308,33.309 100.82,28.618 98.057,23.935 95.294,19.25 
	94.694,16.489 94.093,13.728 95.169,12.758 96.245,11.791 96.245,9.752 96.245,7.715 92.163,2.907 88.631,-1.253 0.458,-1.253 
	0.458,220.211 3.713,220.211 "/>
<polygon fill="#B9E1D4" stroke="#000000" points="185.676,282.712 185.439,284.164 185.676,285.365 188.795,287.285 
	190.248,287.035 190.248,284.884 192.17,284.884 194.088,282.712 189.531,281.761 "/>
<polygon fill="#B9E1D4" stroke="#000000" points="147.461,251.712 143.604,253.38 141.918,258.189 143.121,260.125 143.121,256.271 
	144.325,254.352 146.493,253.632 147.461,255.552 146.979,256.755 148.664,257.955 147.696,266.604 144.572,265.886 
	143.604,264.449 143.604,262.994 146.493,259.156 144.809,259.641 137.596,265.886 133.036,264.934 135.444,272.38 142.17,274.064 
	144.572,277.904 142.887,277.671 143.372,279.104 145.059,279.355 148.664,278.621 149.616,276.223 149.864,257.475 
	149.131,253.632 "/>
<polygon fill="#B9E1D4" stroke="#000000" points="205.154,293.046 201.064,291.609 196.74,291.846 195.541,292.812 200.582,298.339 
	206.59,299.539 207.559,297.854 207.076,294.496 "/>
<polygon fill="#B9E1D4" stroke="#000000" points="37.599,242.564 29.669,248.104 24.612,248.104 23.896,249.309 25.098,252.434 
	37.116,250.979 38.802,248.104 38.085,243.047 "/>
<polygon fill="#B9E1D4" stroke="#000000" points="258.993,260.359 257.309,260.125 256.838,262.529 258.275,264.934 
	261.883,268.059 262.85,270.207 262.111,276.951 260.68,280.561 255.152,288.723 251.547,293.046 247.223,296.419 249.379,298.104 
	251.299,297.389 261.883,286.805 262.85,282.712 265.971,281.025 267.657,281.994 269.812,285.837 269.577,287.771 263.082,290.643 
	264.285,295.216 260.445,293.781 257.561,297.139 252.75,298.587 247.939,303.396 245.771,302.43 242.648,296.648 231.6,297.854 
	216.691,297.619 214.521,299.059 217.645,301.462 218.127,303.632 213.086,305.314 216.439,307.953 229.428,313.964 240.48,317.335 
	243.135,317.82 246.74,316.132 253.467,315.884 268.375,318.285 280.627,312.527 282.799,307.722 283.032,305.064 266.205,268.289 
	"/>
<polygon fill="#B9E1D4" stroke="#000000" points="19.571,249.309 18.854,248.576 17.169,250.744 12.125,253.38 11.877,255.316 
	13.077,256.755 17.169,255.552 21.74,251.945 18.369,251.229 "/>
<polygon fill="#B9E1D4" stroke="#000000" points="134.475,276.951 132.071,274.781 132.071,270.691 130.152,264.934 
	131.586,259.156 127.98,258.189 122.688,254.352 122.688,256.521 120.536,257.475 118.131,256.271 117.648,253.146 116.213,252.662 
	116.213,248.576 117.883,248.34 119.333,251.945 121.97,252.662 120.536,248.104 120.536,242.098 117.413,234.4 115.962,234.148 
	111.869,237.291 110.918,238.959 112.121,242.332 107.064,249.059 105.861,249.309 108.75,232.479 107.547,230.795 104.192,231.277 
	100.334,234.4 101.788,239.439 100.586,240.16 97.214,236.555 92.173,238.008 89.767,239.691 88.799,242.812 81.589,247.373 
	79.419,250.261 75.812,259.641 72.207,261.076 70.285,265.652 63.812,275.984 64.045,283.197 63.076,286.085 61.639,286.805 
	60.439,285.604 58.267,285.604 57.315,283.684 59,281.025 61.156,280.561 61.156,278.391 49.855,276.701 44.579,277.188 
	42.891,279.355 52.509,291.846 59.47,296.419 61.875,296.9 64.527,289.205 70.771,284.164 90.237,281.025 111.403,279.104 
	129.183,279.355 131.586,280.311 140.25,279.355 140.002,277.904 "/>
<polygon fill="#B9E1D4" stroke="#000000" points="45.528,312.527 45.297,314.445 47.934,315.884 53.709,316.132 54.195,315.414 
	51.055,310.607 "/>
</svg>
